<svg width="34" height="34" viewBox="0 0 34 34" fill="none" xmlns="http://www.w3.org/2000/svg">
<path d="M1.22066 33.4366H32.7793H32.7789C32.9532 33.4366 33.1207 33.3676 33.2439 33.244C33.3671 33.1208 33.4365 32.9537 33.4365 32.779V30.1491C33.4365 29.9748 33.3671 29.8077 33.2439 29.6845C33.1207 29.5609 32.9532 29.4918 32.7789 29.4918H30.8067V9.76819H32.7789C33.0448 9.76819 33.2847 9.60798 33.3862 9.36232C33.488 9.11665 33.432 8.83397 33.2439 8.64592L25.3543 0.756367C25.2311 0.633154 25.064 0.563721 24.8897 0.563721H9.11042C8.93608 0.563721 8.769 0.633149 8.64579 0.756367L0.756235 8.64592C0.568168 8.83398 0.512094 9.11665 0.61395 9.36232C0.715424 9.60798 0.955365 9.76819 1.22125 9.76819H3.19342V29.4918H1.22125C1.04692 29.4918 0.879458 29.5609 0.756245 29.6845C0.633032 29.8077 0.563599 29.9748 0.563599 30.1495V32.7794V32.779C0.563599 33.1422 0.85809 33.4366 1.22125 33.4366H1.22066ZM24.8896 12.3976C25.487 12.3961 26.0527 12.6658 26.4273 13.1311C26.8019 13.5969 26.9446 14.2073 26.8149 14.7905C26.6856 15.3738 26.298 15.8667 25.7617 16.1299C25.4916 16.2676 25.1929 16.3404 24.8896 16.3424C24.1847 16.3424 23.5335 15.9666 23.1814 15.3562C22.8289 14.7459 22.8289 13.994 23.1814 13.3837C23.5335 12.7737 24.1846 12.3976 24.8896 12.3976ZM16.9997 12.3976C17.5231 12.3976 18.0247 12.6055 18.3943 12.9755C18.7643 13.3452 18.9722 13.8468 18.9722 14.3701C18.9722 14.8931 18.7643 15.3947 18.3943 15.7648C18.0247 16.1344 17.523 16.3423 16.9997 16.3423C16.4767 16.3423 15.9751 16.1344 15.605 15.7648C15.2354 15.3947 15.0275 14.8931 15.0275 14.3697C15.0279 13.8471 15.2362 13.3455 15.6058 12.9759C15.9755 12.6062 16.4771 12.3983 16.9997 12.3976ZM13.7126 28.6154V23.5746C13.7129 23.052 13.9212 22.5504 14.2909 22.1808C14.6605 21.8111 15.1621 21.6032 15.6851 21.6025H18.315H18.3146C18.8376 21.6032 19.3392 21.8111 19.7088 22.1808C20.0785 22.5504 20.2868 23.0521 20.2872 23.5746V29.4916L13.7125 29.492L13.7126 28.6154ZM9.11011 12.3976C9.81508 12.3976 10.4663 12.7737 10.8183 13.3837C11.1708 13.9941 11.1708 14.7459 10.8183 15.3563C10.4662 15.9666 9.81509 16.3424 9.11011 16.3424C8.80684 16.3405 8.50815 16.2676 8.23769 16.1299C7.70135 15.8663 7.31416 15.3738 7.18447 14.7906C7.05515 14.2073 7.19782 13.5969 7.57243 13.1312C7.94703 12.6658 8.51274 12.3961 9.11011 12.3976Z" fill="white"/>
</svg>
