<svg width="52" height="52" viewBox="0 0 52 52" fill="none" xmlns="http://www.w3.org/2000/svg">
<path d="M7.81824 43.1052H44.1819" stroke="white" stroke-linecap="round" stroke-linejoin="round"/>
<path d="M12.3636 43.1053V48.3684C12.3636 49.8158 11.3409 51 10.0909 51H5.54543C4.29543 51 3.27271 49.8158 3.27271 48.3684V30.4211C3.27271 28.3684 3.68179 26.3684 4.47725 24.5263L9.86362 12.079C11.4091 8.50003 14.5454 6.26318 18 6.26318H34.0454C37.5 6.26318 40.6363 8.52634 42.1818 12.079L47.5682 24.5263C48.3636 26.3421 48.7727 28.3684 48.7727 30.4211V48.3684C48.7727 49.8158 47.75 51 46.5 51H41.9545C40.7045 51 39.6818 49.8158 39.6818 48.3684V43.1053" stroke="white" stroke-linecap="round" stroke-linejoin="round"/>
<path d="M51 22.0789H45.3182C45.3182 22.0789 37.3636 24.6841 26 24.6841C14.6364 24.6841 6.68182 22.0789 6.68182 22.0789H1" stroke="white" stroke-linecap="round" stroke-linejoin="round"/>
<path d="M41.9091 29.9473C41.9091 31.3946 40.8864 32.5788 39.6364 32.5788H35.0909" stroke="white" stroke-linecap="round" stroke-linejoin="round"/>
<path d="M10.0909 29.9473C10.0909 31.3946 11.1137 32.5788 12.3637 32.5788H16.9091" stroke="white" stroke-linecap="round" stroke-linejoin="round"/>
<path d="M21.4546 37.842H30.5455" stroke="white" stroke-linecap="round" stroke-linejoin="round"/>
<path d="M19.1818 6.26316L20.8181 2.44737C21.2045 1.55263 21.9999 1 22.8409 1H29.1136C29.9772 1 30.7727 1.55263 31.1363 2.44737L32.7727 6.26316" stroke="white" stroke-linecap="round" stroke-linejoin="round"/>
</svg>
