<svg width="50" height="50" viewBox="0 0 50 50" fill="none" xmlns="http://www.w3.org/2000/svg">
<path d="M18.8125 45.1875L23.6666 41.1042C24.3958 40.4792 25.6041 40.4792 26.3333 41.1042L31.1875 45.1875C32.3125 45.75 33.6875 45.1875 34.1041 43.9792L35.0208 41.2083C35.25 40.5417 35.0208 39.5625 34.5208 39.0625L29.7916 34.3125C29.4375 33.9792 29.1666 33.3125 29.1666 32.8333V26.8958C29.1666 26.0208 29.8125 25.6042 30.625 25.9375L40.8541 30.3542C42.4583 31.0417 43.7708 30.1875 43.7708 28.4375V25.75C43.7708 24.3542 42.7291 22.75 41.4375 22.2083L29.7916 17.1875C29.4583 17.0417 29.1666 16.6042 29.1666 16.2292V9.97917C29.1666 8.02083 27.7291 5.70833 25.9791 4.8125C25.3541 4.5 24.625 4.5 24 4.8125C22.25 5.70833 20.8125 8.04167 20.8125 10V16.25C20.8125 16.625 20.5208 17.0625 20.1875 17.2083L8.56246 22.2292C7.27079 22.75 6.22913 24.3542 6.22913 25.75V28.4375C6.22913 30.1875 7.54163 31.0417 9.14579 30.3542L19.375 25.9375C20.1666 25.5833 20.8333 26.0208 20.8333 26.8958V32.8333C20.8333 33.3125 20.5625 33.9792 20.2291 34.3125L15.5 39.0625C15 39.5625 14.7708 40.5208 15 41.2083L15.9166 43.9792C16.2916 45.1875 17.6666 45.7708 18.8125 45.1875Z" stroke="white" stroke-width="1.5" stroke-linecap="round" stroke-linejoin="round"/>
</svg>
