<svg width="50" height="50" viewBox="0 0 50 50" fill="none" xmlns="http://www.w3.org/2000/svg">
<g clip-path="url(#clip0_46_34)">
<path d="M8.33329 45.8334H41.6666C43.9583 45.8334 45.8333 43.9584 45.8333 41.6667V14.5834H37.3125C36.3156 8.68133 31.1812 4.16675 25 4.16675C18.8187 4.16675 13.6843 8.68133 12.6885 14.5834H4.16663V41.6667C4.16663 43.9584 6.04163 45.8334 8.33329 45.8334ZM25 8.33341C28.8739 8.33341 32.1302 10.9949 33.0593 14.5834H16.9406C17.8698 10.9949 21.126 8.33341 25 8.33341ZM12.5 18.7501V22.9167H16.6666V18.7501H33.3333V22.9167H37.5V18.7501H41.6666V41.6667H8.33329V18.7501H12.5Z" fill="white"/>
</g>
<defs>
<clipPath id="clip0_46_34">
<rect width="50" height="50" fill="white"/>
</clipPath>
</defs>
</svg>
