<svg width="1000" height="1000" viewBox="0 0 1000 1000" fill="none" xmlns="http://www.w3.org/2000/svg">
<g clip-path="url(#clip0_12_5)">
<path d="M479.076 739V269H529.076V739H479.076ZM497.076 685C469.076 685 442.243 681.333 416.576 674C390.91 666.333 370.243 656.5 354.576 644.5L382.076 583.5C397.076 594.167 414.743 603 435.076 610C455.743 616.667 476.576 620 497.576 620C513.576 620 526.41 618.5 536.076 615.5C546.076 612.167 553.41 607.667 558.076 602C562.743 596.333 565.076 589.833 565.076 582.5C565.076 573.167 561.41 565.833 554.076 560.5C546.743 554.833 537.076 550.333 525.076 547C513.076 543.333 499.743 540 485.076 537C470.743 533.667 456.243 529.667 441.576 525C427.243 520.333 414.076 514.333 402.076 507C390.076 499.667 380.243 490 372.576 478C365.243 466 361.576 450.667 361.576 432C361.576 412 366.91 393.833 377.576 377.5C388.576 360.833 404.91 347.667 426.576 338C448.576 328 476.076 323 509.076 323C531.076 323 552.743 325.667 574.076 331C595.41 336 614.243 343.667 630.576 354L605.576 415.5C589.243 406.167 572.91 399.333 556.576 395C540.243 390.333 524.243 388 508.576 388C492.91 388 480.076 389.833 470.076 393.5C460.076 397.167 452.91 402 448.576 408C444.243 413.667 442.076 420.333 442.076 428C442.076 437 445.743 444.333 453.076 450C460.41 455.333 470.076 459.667 482.076 463C494.076 466.333 507.243 469.667 521.576 473C536.243 476.333 550.743 480.167 565.076 484.5C579.743 488.833 593.076 494.667 605.076 502C617.076 509.333 626.743 519 634.076 531C641.743 543 645.576 558.167 645.576 576.5C645.576 596.167 640.076 614.167 629.076 630.5C618.076 646.833 601.576 660 579.576 670C557.91 680 530.41 685 497.076 685Z" fill="#FFB153"/>
</g>
<defs>
<clipPath id="clip0_12_5">
<rect width="1000" height="1000" fill="white"/>
</clipPath>
</defs>
</svg>
